<svg width="200" height="200" viewBox="0 0 300 300" fill="none" xmlns="http://www.w3.org/2000/svg">
<path d="M57.5448 243.39L33.9784 87.7631C33.1589 82.3512 36.8426 77.2862 42.2436 76.3983L59.4597 73.5683C64.7799 72.6937 69.8356 76.1943 70.889 81.482L92.6128 190.527C93.6655 195.811 98.7153 199.311 104.033 198.442L161.737 189.014C166.945 188.163 171.918 191.505 173.097 196.649L175.037 205.115C175.925 208.993 174.431 213.028 171.231 215.392L134.615 242.437C133.229 243.462 131.601 244.11 129.89 244.32L68.6475 251.819C63.2755 252.476 58.3551 248.741 57.5448 243.39Z" fill="#AE3939" stroke="black" stroke-width="4" stroke-linecap="round"/>
<path d="M203.276 151.694L198.177 61.4748C197.825 55.2417 203.206 50.2133 209.401 50.9877L261.575 57.5093C267.777 58.2847 271.756 64.4972 269.866 70.4557L245.576 147.033C244.588 150.146 242.143 152.58 239.026 153.554L216.243 160.674C210.028 162.616 203.644 158.195 203.276 151.694Z" fill="#2D78E9" stroke="black" stroke-width="4" stroke-linecap="round"/>
<path d="M126.241 148.847L114.5 129.799C111.911 125.599 112.772 120.139 116.528 116.939L137.608 98.9823C143.402 94.0466 152.366 97.1358 153.89 104.593L158.848 128.861C159.561 132.352 158.363 135.959 155.702 138.329L141.406 151.066C136.761 155.204 129.505 154.142 126.241 148.847Z" fill="#308954" stroke="black" stroke-width="4" stroke-linecap="round"/>
</svg>
